<?xml version="1.0" encoding="UTF-8" standalone="no"?>
<svg
   xmlns:dc="http://purl.org/dc/elements/1.1/"
   xmlns:cc="http://creativecommons.org/ns#"
   xmlns:rdf="http://www.w3.org/1999/02/22-rdf-syntax-ns#"
   xmlns:svg="http://www.w3.org/2000/svg"
   xmlns="http://www.w3.org/2000/svg"
   viewBox="0 0 1312 1514.6667"
   height="1514.6667"
   width="1312"
   xml:space="preserve"
   id="svg2"
   version="1.1"><metadata
     id="metadata8"><rdf:RDF><cc:Work
         rdf:about=""><dc:format>image/svg+xml</dc:format><dc:type
           rdf:resource="http://purl.org/dc/dcmitype/StillImage" /></cc:Work></rdf:RDF></metadata><defs
     id="defs6"><clipPath
       id="clipPath50"
       clipPathUnits="userSpaceOnUse"><path
         id="path48"
         d="M 0,1136 H 984 V 0 H 0 Z" /></clipPath></defs><g
     transform="matrix(1.3333333,0,0,-1.3333333,0,1514.6667)"
     id="g10"><g
       transform="translate(0.1404,851.9733)"
       id="g12"><path
         id="path14"
         style="fill:#ffffff;fill-opacity:1;fill-rule:nonzero;stroke:none"
         d="m 0,0 v -567.949 l 491.857,-283.974 491.859,283.974 V 0 L 491.857,283.974 Z" /></g><g
       transform="translate(951.1885,302.8848)"
       id="g16"><path
         id="path18"
         style="fill:#005bab;fill-opacity:1;fill-rule:nonzero;stroke:none"
         d="M 0,0 -459.19,-265.113 -918.381,0 V 530.229 L -459.19,795.342 0,530.229 Z M -459.19,812.009 -932.815,538.562 V -8.333 L -459.19,-281.78 14.435,-8.333 v 546.895 z" /></g><g
       transform="translate(222.0674,320.9502)"
       id="g20"><path
         id="path22"
         style="fill:#000000;fill-opacity:1;fill-rule:nonzero;stroke:none"
         d="m 0,0 v -81.483 h 56.311 v 16.184 h -41.99 l 0,65.299 z" /></g><path
       id="path24"
       style="fill:#000000;fill-opacity:1;fill-rule:nonzero;stroke:none"
       d="m 288.749,239.467 h 17.922 v 81.483 h -17.922 z" /><g
       transform="translate(370.9194,320.9502)"
       id="g26"><path
         id="path28"
         style="fill:#000000;fill-opacity:1;fill-rule:nonzero;stroke:none"
         d="M 0,0 -33.056,-34.973 V 0 h -17.927 v -81.483 h 17.927 v 24.917 l 9.43,9.772 25.26,-34.689 H 23.168 L -11.521,-34.569 21.648,0 Z" /></g><g
       transform="translate(400.7622,320.9502)"
       id="g30"><path
         id="path32"
         style="fill:#000000;fill-opacity:1;fill-rule:nonzero;stroke:none"
         d="m 0,0 v -81.483 h 63.425 v 15.95 H 17.688 v 16.816 h 43.656 v 15.95 H 17.688 V -15.95 H 63.425 V 0 Z" /></g><g
       transform="translate(496.7871,320.9502)"
       id="g34"><path
         id="path36"
         style="fill:#000000;fill-opacity:1;fill-rule:nonzero;stroke:none"
         d="m 0,0 v -81.483 h 59.911 v 16.184 H 17.922 l 0,65.299 z" /></g><path
       id="path38"
       style="fill:#000000;fill-opacity:1;fill-rule:nonzero;stroke:none"
       d="M 566.968,239.467 H 584.89 V 320.95 H 566.968 Z" /><g
       transform="translate(747.0518,320.9502)"
       id="g40"><path
         id="path42"
         style="fill:#000000;fill-opacity:1;fill-rule:nonzero;stroke:none"
         d="M 0,0 V -50.172 L -38.17,0 h -17.258 v -81.483 h 18.418 v 51.799 L 2.44,-81.483 h 12.437 l 0,81.483 z" /></g><g
       id="g44"><g
         clip-path="url(#clipPath50)"
         id="g46"><g
           transform="translate(638.0449,253.6592)"
           id="g52"><path
             id="path54"
             style="fill:#000000;fill-opacity:1;fill-rule:nonzero;stroke:none"
             d="m 0,0 c 3.688,0 7.093,0.682 10.214,2.043 3.127,1.362 5.785,3.247 7.991,5.649 2.201,2.403 3.922,5.186 5.164,8.346 1.237,3.165 1.863,6.553 1.863,10.153 v 0.241 c 0,3.606 -0.626,7.01 -1.863,10.219 -1.242,3.198 -3.001,6.008 -5.284,8.406 -2.287,2.402 -4.984,4.308 -8.111,5.709 -3.126,1.399 -6.532,2.102 -10.214,2.102 -3.764,0 -7.191,-0.68 -10.274,-2.043 -3.084,-1.361 -5.725,-3.246 -7.926,-5.648 -2.206,-2.403 -3.927,-5.187 -5.169,-8.352 -1.243,-3.165 -1.864,-6.548 -1.864,-10.148 v -0.245 c 0,-3.601 0.621,-7.006 1.864,-10.209 1.242,-3.208 3.006,-6.008 5.289,-8.411 2.277,-2.402 4.967,-4.309 8.046,-5.708 C -7.191,0.703 -3.765,0 0,0 m -0.234,-16.456 c -6.402,0 -12.285,1.127 -17.656,3.377 -5.371,2.25 -10.012,5.29 -13.923,9.119 -3.912,3.835 -6.952,8.335 -9.12,13.51 -2.173,5.175 -3.262,10.726 -3.262,16.647 v 0.235 c 0,5.926 1.105,11.477 3.317,16.647 2.211,5.175 5.273,9.718 9.185,13.63 3.911,3.911 8.568,6.989 13.977,9.238 5.409,2.25 11.315,3.378 17.716,3.378 6.396,0 12.284,-1.128 17.655,-3.378 5.366,-2.249 10.012,-5.289 13.918,-9.124 3.911,-3.835 6.951,-8.335 9.125,-13.505 2.168,-5.174 3.257,-10.725 3.257,-16.647 V 26.432 C 43.955,20.51 42.85,14.959 40.638,9.789 38.426,4.614 35.365,0.071 31.453,-3.835 c -3.905,-3.911 -8.568,-6.994 -13.977,-9.244 -5.411,-2.25 -11.315,-3.377 -17.71,-3.377" /></g><g
           transform="translate(745.6533,662.2095)"
           id="g56"><path
             id="path58"
             style="fill:#005bab;fill-opacity:1;fill-rule:nonzero;stroke:none"
             d="M 0,0 C 30.63,64.132 -56.474,106.248 -45.945,129.22 -35.416,152.193 0,112.948 0,112.948 c 0,82.319 -56.474,64.132 -49.774,85.19 6.701,21.058 26.801,13.401 26.801,13.401 -32.544,81.361 -89.975,47.859 -89.975,69.875 0,22.015 20.1,17.229 20.1,17.229 -28.715,44.988 -54.559,-4.786 -70.832,12.443 -16.272,17.23 9.573,26.802 9.573,26.802 -2.872,5.743 -27.759,9.571 -54.56,-3.829 -26.802,-13.401 -44.988,21.058 -44.988,21.058 0,0 -18.187,-34.459 -44.988,-21.058 -26.801,13.4 -51.688,9.572 -54.56,3.829 0,0 25.844,-9.572 9.572,-26.802 -16.272,-17.229 -42.116,32.545 -70.832,-12.443 0,0 20.101,4.786 20.101,-17.229 0,-22.016 -57.431,11.486 -89.975,-69.875 0,0 20.1,7.657 26.801,-13.401 6.7,-21.058 -49.774,-2.871 -49.774,-85.19 0,0 35.416,39.245 45.945,16.272 C -450.836,106.248 -537.94,64.132 -507.31,0 c 0,0 25.844,44.031 41.159,22.015 15.315,-22.015 -70.832,-33.501 -14.358,-78.489 0,0 4.786,42.116 17.23,21.058 12.443,-21.058 -6.701,-50.731 12.443,-77.532 19.144,-26.802 26.801,-47.859 26.801,-47.859 0,0 9.572,34.458 4.786,42.116 -4.786,7.657 24.887,-11.486 24.887,-50.731 0.826,-12.411 -2.178,-29.922 -2.178,-29.922 0,0 21.872,28.871 36.744,25.371 14.873,-3.499 52.809,-28.763 61.695,-70.229 0,0 20.77,24.541 44.446,24.541 23.676,0 44.446,-24.541 44.446,-24.541 8.886,41.466 46.821,66.73 61.694,70.229 14.873,3.5 36.744,-25.371 36.744,-25.371 0,0 -3.003,17.511 -2.177,29.922 v 0.001 c 0,39.244 29.673,58.387 24.886,50.73 -4.786,-7.658 4.787,-42.116 4.787,-42.116 0,0 7.657,21.057 26.801,47.859 19.143,26.801 0,56.474 12.444,77.532 12.443,21.058 17.228,-21.058 17.228,-21.058 C 29.673,-11.486 -56.474,0 -41.159,22.015 -25.845,44.031 0,0 0,0" /></g><g
           transform="translate(575.2998,834.5034)"
           id="g60"><path
             id="path62"
             style="fill:#c49600;fill-opacity:1;fill-rule:nonzero;stroke:none"
             d="m 0,0 c -6.956,22.973 14.905,30.63 14.905,30.63 0,0 0,5.743 -14.905,22.973 -14.905,17.229 -26.829,5.743 -26.829,5.743 -0.994,30.63 -17.887,37.33 -31.798,28.716 -13.911,-8.615 -13.911,-24.888 -24.842,-24.888 -10.93,0 -10.93,16.273 -24.842,24.888 -13.911,8.614 -30.804,1.914 -31.797,-28.716 0,0 -11.925,11.486 -26.829,-5.743 -14.906,-17.23 -14.906,-22.973 -14.906,-22.973 0,0 21.861,-7.657 14.906,-30.63 -6.957,-22.973 -32.792,-44.988 0,-59.346 0,0 11.923,28.716 28.816,7.658 16.892,-21.058 -6.956,-39.245 -6.956,-39.245 0,0 22.855,-4.786 36.766,-22.972 0,0 0.994,12.443 22.854,16.272 v 30.63 c 0,0 -24.841,14.357 -23.848,23.93 0.623,5.995 10.931,1.914 25.836,1.914 14.906,0 25.213,4.081 25.835,-1.914 0.994,-9.573 -23.847,-23.93 -23.847,-23.93 v -30.63 c 21.86,-3.829 22.854,-16.272 22.854,-16.272 13.911,18.186 36.766,22.972 36.766,22.972 0,0 -23.848,18.187 -6.955,39.245 C -11.925,-30.63 0,-59.346 0,-59.346 32.791,-44.988 6.955,-22.973 0,0" /></g><g
           transform="translate(526.457,826.8457)"
           id="g64"><path
             id="path66"
             style="fill:#005bab;fill-opacity:1;fill-rule:nonzero;stroke:none"
             d="m 0,0 c 0,0 -1.914,2.872 -4.492,8.736 -3.881,8.83 -4.31,21.28 7.363,21.894 18.187,0.957 13.401,9.572 35.416,-5.743 0,0 -13.4,4.786 -18.186,-3.828 C 15.314,12.444 4.786,13.401 0,17.229 c -1.672,1.338 -1.914,1.915 -1.914,1.915 0,0 0,-11.486 1.914,-19.144" /></g><g
           transform="translate(457.2046,826.8457)"
           id="g68"><path
             id="path70"
             style="fill:#005bab;fill-opacity:1;fill-rule:nonzero;stroke:none"
             d="m 0,0 c 0,0 1.915,2.872 4.492,8.736 3.881,8.83 4.31,21.28 -7.364,21.894 -18.186,0.957 -13.4,9.572 -35.416,-5.743 0,0 13.401,4.786 18.187,-3.828 4.786,-8.615 15.315,-7.658 20.101,-3.83 1.671,1.338 1.915,1.915 1.915,1.915 0,0 0,-11.486 -1.915,-19.144" /></g><g
           transform="translate(542.126,734.7705)"
           id="g72"><path
             id="path74"
             style="fill:#c49600;fill-opacity:1;fill-rule:nonzero;stroke:none"
             d="m 0,0 c -7.558,-3.852 -17.3,-10.164 -24.503,-19.581 l -1.748,-2.285 -0.388,2.852 c -0.078,0.547 -1.942,15.353 -22.833,17.169 -0.41,0.035 -1.236,0.035 -1.647,0 -20.891,-1.816 -22.754,-16.622 -22.833,-17.174 l -0.404,-2.818 -1.731,2.256 c -7.092,9.271 -16.627,15.526 -24.126,19.391 0.929,-4.281 2.873,-16.774 -2.56,-29.192 -6.701,-15.315 1.914,-27.759 1.914,-27.759 0,0 1.915,9.572 9.572,9.572 0,0 1.914,-35.416 12.444,-37.33 0,0 -0.958,17.229 5.742,17.229 0,0 0,-21.058 10.53,-30.63 10.529,-9.572 12.443,-20.101 12.443,-20.101 0,0 1.914,10.529 12.443,20.101 10.53,9.572 10.53,30.63 10.53,30.63 6.7,0 5.743,-17.229 5.743,-17.229 10.529,1.914 12.443,37.33 12.443,37.33 7.657,0 9.573,-9.572 9.573,-9.572 0,0 8.614,12.444 1.914,27.759 C -3.002,-16.768 -0.909,-4.083 0,0" /></g><g
           transform="translate(315.2412,894.1704)"
           id="g76"><path
             id="path78"
             style="fill:#c49600;fill-opacity:1;fill-rule:nonzero;stroke:none"
             d="m 0,0 c -7.594,-7.01 -11.929,-10.478 -16.74,-19.834 -3.565,-6.934 -14.244,-7.228 -19.532,-1.1 -5.553,6.437 -11.981,12.116 -17.991,18.162 -3.69,3.712 -7.728,5.922 -13.208,4.18 -5.674,-1.804 -6.316,-11.179 -10.573,-13.06 -11.048,-4.88 -10.412,-3.688 -15.188,-13.975 -2.635,-5.676 -10.49,-4.445 -12.673,-10.196 -2.095,-5.516 -2.975,-7.898 -5.089,-10.19 -3.906,-4.238 -7.523,-4.22 -8.98,-11.022 -0.999,-4.662 -0.266,-8.306 2.582,-12.074 12.401,-16.402 25.659,-44.433 43.031,-52.775 19.137,-9.19 41.655,-82.319 41.655,-82.319 0,0 23.352,16.863 45.513,24.089 17.127,5.584 42.205,10.113 42.205,10.113 0,0 -57.584,40.459 -44.183,93.105 -2.946,19.651 -10.557,41.682 1.431,57.404 2.013,2.64 7.063,10.865 10.668,12.981 4.548,2.67 13.183,8.112 11.807,10.604 C 33.015,7.21 26.054,7.414 18.007,7.386 13.732,7.371 3.959,3.321 0,0" /></g><g
           transform="translate(668.4619,894.1704)"
           id="g80"><path
             id="path82"
             style="fill:#c49600;fill-opacity:1;fill-rule:nonzero;stroke:none"
             d="m 0,0 c 7.595,-7.01 11.93,-10.478 16.74,-19.834 3.566,-6.934 14.244,-7.228 19.532,-1.1 5.553,6.437 11.982,12.116 17.992,18.162 3.689,3.712 7.727,5.922 13.207,4.18 5.675,-1.804 6.317,-11.179 10.574,-13.06 11.048,-4.88 10.411,-3.688 15.187,-13.975 2.635,-5.676 10.491,-4.445 12.674,-10.196 2.095,-5.516 2.975,-7.898 5.088,-10.19 3.907,-4.238 7.524,-4.22 8.981,-11.022 0.999,-4.662 0.266,-8.306 -2.582,-12.074 -12.402,-16.402 -25.66,-44.433 -43.032,-52.775 -19.136,-9.19 -41.655,-82.319 -41.655,-82.319 0,0 -23.352,16.863 -45.512,24.089 -17.128,5.584 -42.206,10.113 -42.206,10.113 0,0 57.584,40.459 44.184,93.105 2.946,19.651 10.557,41.682 -1.432,57.404 -2.013,2.64 -7.062,10.865 -10.668,12.981 -4.548,2.67 -13.182,8.112 -11.807,10.604 1.72,3.117 8.681,3.321 16.728,3.293 C -13.732,7.371 -3.959,3.321 0,0" /></g><g
           transform="translate(491.8311,471.7891)"
           id="g84"><path
             id="path86"
             style="fill:#c49600;fill-opacity:1;fill-rule:nonzero;stroke:none"
             d="m 0,0 c -25.847,0 -46.8,20.953 -46.8,46.8 0,25.846 20.953,46.8 46.8,46.8 25.847,0 46.8,-20.954 46.8,-46.8 C 46.8,20.953 25.847,0 0,0 m 0,117.238 c -38.902,0 -70.438,-31.536 -70.438,-70.438 0,-38.902 31.536,-70.439 70.438,-70.439 38.901,0 70.438,31.537 70.438,70.439 0,38.902 -31.537,70.438 -70.438,70.438" /></g><g
           transform="translate(366.2534,621.1362)"
           id="g88"><path
             id="path90"
             style="fill:#c49600;fill-opacity:1;fill-rule:nonzero;stroke:none"
             d="m 0,0 c 0,0 -12.122,-11.644 -16.677,-22.47 -4.554,-10.826 -3.541,-22.835 6.729,-35.567 10.271,-12.731 26.557,-19.132 41.326,-16.608 14.769,2.525 28.021,14.975 40.223,25.944 4.583,4.119 16.146,14.565 25.094,23.99 9.182,9.919 16.22,16.81 16.22,16.81 0,0 -12.037,11.332 -17.707,16.26 0,0 -14.995,-16.489 -31.895,-32.197 -16.9,-15.709 -35.947,-33.706 -48.533,-26.863 -11.013,5.988 -12.549,17.297 -10.331,23.11 2.218,5.812 8.188,11.127 8.188,11.127 z" /></g><g
           transform="translate(599.3574,534.6377)"
           id="g92"><path
             id="path94"
             style="fill:#c49600;fill-opacity:1;fill-rule:nonzero;stroke:none"
             d="m 0,0 c 0,0 -16.913,-20.43 -33.942,-44.099 -17.03,-23.67 -33.175,-50.58 -33.64,-63.541 -0.572,-15.959 3.225,-25.998 14.411,-36.671 8.814,-9.327 28.814,-24.327 54.494,-27.204 13.375,-1.145 30.264,7.311 40.72,18.038 10.6,10.839 26.277,31.321 41.781,54.197 15.504,22.875 28.654,43.86 28.654,43.86 l -29.896,14.674 c 0,0 -45.939,-77.892 -69.794,-93.618 -14.145,-8.274 -23.449,-3.032 -32.986,2.287 -9.536,5.317 -17.89,14.936 -17.556,24.759 0.666,10.8 13.295,32.275 29.309,53.829 16.012,21.553 30.37,41.562 30.37,41.562 z" /></g><g
           transform="translate(357.2017,658.1807)"
           id="g96"><path
             id="path98"
             style="fill:#c49600;fill-opacity:1;fill-rule:nonzero;stroke:none"
             d="m 0,0 -12.145,17.619 28.377,6.524 z m 27.688,45.413 -98.846,-22.723 8.181,-18.121 31.07,7.049 17.762,-28.336 -19.812,-29.768 14.667,-22.667 62.159,97.653 z" /></g><g
           transform="translate(697.6182,680.8716)"
           id="g100"><path
             id="path102"
             style="fill:#c49600;fill-opacity:1;fill-rule:nonzero;stroke:none"
             d="m 0,0 -89.773,33.983 -49.692,-53.578 22.118,-12.208 36.579,40.899 71.589,-28.315 z" /></g><g
           transform="translate(637.7861,578.5005)"
           id="g104"><path
             id="path106"
             style="fill:#c49600;fill-opacity:1;fill-rule:nonzero;stroke:none"
             d="M 0,0 -104.893,59.042 -125.872,41.974 -15.654,-21.859 Z" /></g><g
           transform="translate(371.2534,527.6855)"
           id="g108"><path
             id="path110"
             style="fill:#c49600;fill-opacity:1;fill-rule:nonzero;stroke:none"
             d="m 0,0 111.433,-109.645 -36.82,-26.083 -123.214,73.832 73.463,-105.107 -33.576,-17.528 -87.713,136.063 44.792,21.184 112.242,-69.162 -85.804,81.563 z" /></g><g
           transform="translate(311.8896,765.355)"
           id="g112"><path
             id="path114"
             style="fill:#005bab;fill-opacity:1;fill-rule:nonzero;stroke:none"
             d="m 0,0 c -10.619,-0.637 -21.191,-0.278 -31.583,1.036 -0.053,-0.02 -6.551,1.412 -11.669,-4.542 -3.223,-4.672 -6.666,-9.256 -10.326,-13.739 0.039,-0.014 -4.467,-5.865 -3.094,-8.945 1.007,-2.194 2.055,-4.381 3.146,-6.56 0.008,-0.002 2.119,4.67 2.858,5.66 4.108,5.064 7.945,10.252 11.506,15.542 0.003,0.002 1.864,2.617 4.484,3.709 0.004,0.001 2.301,0.935 5.093,0.755 6.038,-0.599 12.123,-0.89 18.231,-0.868 -2.969,-6.427 -6.293,-12.781 -9.97,-19.033 0.005,0.002 -1.189,-2.095 -3.578,-1.669 0.001,-0.001 -1.381,0.301 -1.865,2.455 -1.329,-2.141 -2.7,-4.269 -4.114,-6.382 0.002,0 -0.638,-1.089 0.033,-2.131 0,0.001 0.476,-0.742 1.949,-1.005 2.276,-0.123 4.555,-0.208 6.837,-0.255 -0.02,-0.007 4.378,-0.423 7.458,3.894 C -8.778,-21.591 -3.906,-10.855 0,0" /></g><g
           transform="translate(274.0972,717.8579)"
           id="g116"><path
             id="path118"
             style="fill:#005bab;fill-opacity:1;fill-rule:nonzero;stroke:none"
             d="m 0,0 c 6.762,-0.791 13.571,-1.267 20.405,-1.424 -0.053,-0.037 8.949,-0.77 13.783,6.308 4.785,9.105 8.881,18.367 12.284,27.708 0.014,0.001 1.305,3.029 -0.913,5.491 -1.563,1.755 -3.088,3.529 -4.574,5.322 -0.002,0 0.357,-1.124 -0.021,-2.272 C 37.535,31.558 33.372,22.069 28.48,12.752 28.486,12.755 26.523,8.999 23.276,7.716 23.28,7.717 20.672,6.507 17.333,6.549 12.919,6.661 8.515,6.91 4.126,7.297 2.209,7.603 1.6,8.514 1.6,8.512 c -0.651,1.041 -1.292,2.085 -1.923,3.132 -0.481,1.09 0.521,2.401 0.519,2.402 2.881,4.069 5.604,8.2 8.166,12.381 0.005,0.002 1.228,2.026 3.486,1.584 10e-4,-0.002 1.306,-0.307 1.806,-2.447 1.273,2.159 2.505,4.331 3.693,6.514 0.002,0 0.518,1.118 -0.135,2.126 0,10e-4 -0.462,0.711 -1.774,0.921 -2.02,0.051 -4.038,0.136 -6.054,0.254 C 9.365,35.375 5.638,35.945 2.41,31.989 -1.214,26.434 -5.135,20.984 -9.347,15.663 -9.339,15.662 -11.112,13.469 -10.042,11.487 -8.425,8.517 -6.728,5.564 -4.951,2.634 -4.955,2.641 -3.698,0.4 0,0" /></g><g
           transform="translate(342.9673,201.0479)"
           id="g120"><path
             id="path122"
             style="fill:#000000;fill-opacity:1;fill-rule:nonzero;stroke:none"
             d="m 0,0 c 0,-1.67 -0.031,-2.378 -0.749,-3.063 -0.921,-0.922 -2.17,-1.316 -4.175,-1.316 -1.6,0 -2.412,0.566 -2.412,1.683 v 0.486 c 0,1.148 0.361,2.21 2.98,2.21 z m -3.304,14.452 c -4.218,0 -7.146,-1.661 -9.226,-3.109 l -0.505,-0.352 3.231,-4.793 0.528,0.414 c 1.8,1.409 3.741,2.095 5.932,2.095 C -0.906,8.707 0,7.822 0,5.444 V 5.219 h -4.478 c -7.479,0 -9.048,-3.798 -9.048,-6.984 v -1.296 c 0,-4.295 3.065,-6.861 8.198,-6.861 1.968,0 4.316,0.672 5.784,1.943 L 0.503,-9.598 H 6.312 V 6.699 c 0,4.71 -3.775,7.753 -9.616,7.753" /></g><g
           transform="translate(366.7324,197.6406)"
           id="g124"><path
             id="path126"
             style="fill:#000000;fill-opacity:1;fill-rule:nonzero;stroke:none"
             d="m 0,0 -0.704,-0.29 c -1.018,-0.421 -1.892,-0.601 -2.921,-0.601 -1.101,0 -1.561,0.234 -1.561,1.683 v 11.119 h 5.629 v 5.462 h -5.629 v 5.71 h -6.353 v -5.71 h -3.564 v -5.462 h 3.564 V 0.752 c 0,-4.958 2.322,-7.267 7.307,-7.267 2.315,0 4.146,0.688 4.826,0.984 l 0.461,0.201 z" /></g><g
           transform="translate(424.0757,201.6602)"
           id="g128"><path
             id="path130"
             style="fill:#000000;fill-opacity:1;fill-rule:nonzero;stroke:none"
             d="m 0,0 v 20.282 h -9.306 v -58.66 H 0 V -8.262 H 7.867 V 0 Z" /></g><g
           transform="translate(387.7515,199.9258)"
           id="g132"><path
             id="path134"
             style="fill:#000000;fill-opacity:1;fill-rule:nonzero;stroke:none"
             d="M 0,0 C 0,6.836 2.005,9.884 6.503,9.884 11,9.884 13.005,6.836 13.005,0 v -4.978 c 0,-6.835 -2.005,-9.883 -6.502,-9.883 -4.498,0 -6.503,3.048 -6.503,9.883 z m 6.503,18.206 c -9.812,0 -15.44,-6.3 -15.44,-17.283 V -5.9 c 0,-10.984 5.628,-17.284 15.44,-17.284 9.812,0 15.439,6.3 15.439,17.284 v 6.823 c 0,10.983 -5.627,17.283 -15.439,17.283" /></g><g
           transform="translate(440.749,191.6074)"
           id="g136"><path
             id="path138"
             style="fill:#000000;fill-opacity:1;fill-rule:nonzero;stroke:none"
             d="m 0,0 c 4.582,1.82 9.082,3.825 12.875,5.545 3.282,1.471 5.493,2.768 6.6,3.872 C 20.539,8.321 22.62,7.086 25.782,5.668 29.587,3.944 34.093,1.937 38.66,0.123 l 0.643,-0.255 3.682,7.441 -0.766,0.295 c -5.331,2.062 -10.199,4.148 -13.707,5.875 -3.048,1.497 -4.351,3.146 -4.433,5.645 h 15.73 V 27.2 H -1.149 v -8.076 h 15.73 C 14.499,16.625 13.196,14.976 10.149,13.479 6.645,11.754 1.777,9.668 -3.558,7.604 l -0.76,-0.293 3.671,-7.568 z" /></g><g
           transform="translate(433.146,189.9199)"
           id="g140"><path
             id="path142"
             style="fill:#000000;fill-opacity:1;fill-rule:nonzero;stroke:none"
             d="m 0,0 v -8.076 h 22.311 v -18.562 h 9.306 V -8.076 H 53.866 V 0 Z" /></g><g
           transform="translate(516.3232,187.6377)"
           id="g144"><path
             id="path146"
             style="fill:#000000;fill-opacity:1;fill-rule:nonzero;stroke:none"
             d="m 0,0 c -5.516,-0.864 -10.98,-0.975 -15.126,-0.975 h -1.033 v 21.671 h 14.383 v 8.2 h -23.565 v -38.07 h 10.215 c 6.772,0 12.062,0.345 16.169,1.055 L 1.745,-7.998 0.768,0.12 Z" /></g><g
           transform="translate(531.4863,221.9424)"
           id="g148"><path
             id="path150"
             style="fill:#000000;fill-opacity:1;fill-rule:nonzero;stroke:none"
             d="m 0,0 v -19.483 h -3.541 v 18.315 h -8.936 v -54.727 h 8.936 v 28.212 H 0 V -58.66 H 8.938 V 0 Z" /></g><g
           transform="translate(591.8652,207.6211)"
           id="g152"><path
             id="path154"
             style="fill:#000000;fill-opacity:1;fill-rule:nonzero;stroke:none"
             d="M 0,0 V 14.321 H -9.244 V -22.95 H 0 V -8.261 H 7.498 V 0 Z" /></g><g
           transform="translate(553.918,175.5742)"
           id="g156"><path
             id="path158"
             style="fill:#000000;fill-opacity:1;fill-rule:nonzero;stroke:none"
             d="m 0,0 h 28.703 v -13.029 h 9.244 V 8.016 L 0,8.016 Z" /></g><g
           transform="translate(579.8184,216.5332)"
           id="g160"><path
             id="path162"
             style="fill:#000000;fill-opacity:1;fill-rule:nonzero;stroke:none"
             d="m 0,0 h -12.354 v 6.146 h -9.244 V 0 H -34.197 V -8.015 H 0 Z" /></g><g
           transform="translate(568.3613,196.1152)"
           id="g164"><path
             id="path166"
             style="fill:#000000;fill-opacity:1;fill-rule:nonzero;stroke:none"
             d="m 0,0 c 0,-1.373 -1.712,-3.307 -5.518,-3.307 -3.806,0 -5.519,1.934 -5.519,3.307 v 1.229 c 0,1.374 1.713,3.307 5.519,3.307 C -1.712,4.536 0,2.603 0,1.229 Z m 8.814,-0.368 v 1.967 c 0,6.195 -5.893,10.522 -14.332,10.522 -8.439,0 -14.334,-4.327 -14.334,-10.522 v -1.967 c 0,-6.195 5.895,-10.523 14.334,-10.523 8.439,0 14.332,4.328 14.332,10.523" /></g><g
           transform="translate(638.7363,206.0723)"
           id="g168"><path
             id="path170"
             style="fill:#000000;fill-opacity:1;fill-rule:nonzero;stroke:none"
             d="m 0,0 c 0,-6.623 -0.121,-13.228 -1.587,-21.191 l -0.143,-0.778 9.053,-1.177 0.126,0.704 c 1.47,8.217 1.672,16.618 1.672,24.47 v 9.048 H -31.531 V 2.877 L 0,2.877 Z" /></g><g
           transform="translate(634.2129,178.4883)"
           id="g172"><path
             id="path174"
             style="fill:#000000;fill-opacity:1;fill-rule:nonzero;stroke:none"
             d="M 0,0 V 18.992 H -9.061 V 0 h -3.97 V 18.992 H -22.09 V 0 H -33.277 V -8.015 H 20.59 l 0,8.015 z" /></g></g></g></g></svg>